<svg id="Layer_1" data-name="Layer 1" xmlns="http://www.w3.org/2000/svg" viewBox="0 0 846.52 292.43"><defs><style>.cls-1{fill:#fff;}</style></defs><path class="cls-1" d="M182.08,62.06l-2.2.88-1.76.88a24.21,24.21,0,0,1-5.72,2.64l-1.77.89a17.29,17.29,0,0,1-4.84,2.2l-.88.88-5.28,2.2-1.33.44-2.64,1.76a35.62,35.62,0,0,0-5.72,2.64Q139.16,56.34,118.23,53.7q-23.55-2.1-37,14.53l-.88.88-3.09,4q-11.88,30.06-4,57.68,9.47,35.57,47.12,31.71,24.1-6.06,29.94-27.74a34.18,34.18,0,0,0,.88-9.69H109V95.09h74V192.4H150.82v-11q-18.72,16.74-41.39,14.53l-.88.44q-14.31-.21-25.1-5.28Q41.84,173.47,34.57,129,26.65,83.53,50.42,50.61q21.92-28.83,55.49-30.82Q160.5,17.59,182.08,62.06Z"/><path class="cls-1" d="M309.9,103a13.25,13.25,0,0,1,2.2,4q9.48,38.29-9.24,67.37-26.31,30.27-62.53,19.81-38.09-13-41.39-54.16-3.3-63,52.84-73.09Q295.15,66.58,309.9,103ZM232.4,133.4q-.66,28.29,23.34,33.46,28.85-2,26-42.27-3.41-27.86-28.18-28.18Q229.54,106.76,232.4,133.4Z"/><path class="cls-1" d="M350.64,23.31h73.1l.88.44h1.32l3.08.44,1.32.44L436.51,26q41.28,19.82,34.78,62.53-14.75,50.53-67.37,44h-22v59H347.12V23.31Zm31.27,77.5h37a18.91,18.91,0,0,1,4.85-1.32q18.38-10.9,12.33-29.94Q432,60.09,423.3,56.34H422A31.15,31.15,0,0,0,409.65,55H381.91Z"/><path class="cls-1" d="M581.27,81.88l.44.88a17.71,17.71,0,0,1,2.64,4.4,22.15,22.15,0,0,1,3.09,6.17v1.76a25.94,25.94,0,0,1,1.32,7.48v43.15a83.2,83.2,0,0,0,.88,18.06,23.4,23.4,0,0,0,12.33,7l-.88,1.32-.88,2.21-.89,1.76-.44,1.32-.44,1.32-.88,1.32-1.76,4.4-.88,1.33-.44,1.32-.44,1.32-.44.88-3.08,6.6q-19.6.12-29.5-12.33-18.82,18.72-46.68,9.25-25.65-7.05-29.94-31.26.21-35.57,33.46-41.39a8.68,8.68,0,0,1,3.53-1.33h1.32a2.39,2.39,0,0,1,1.32-.44l1.32-.44,7.92-1.32,3.53-.44,1.32-.44,7.48-.44a38.72,38.72,0,0,1,9.69-.44q1.65-24.54-26.86-16.73l-1.32.44-3.52.44-3.08,1.32-1.33.44-4.4,1.32a21.77,21.77,0,0,1-6.16,3.08,23.41,23.41,0,0,1-7.49,4l-3.08-5.73-.88-.44-.44-1.32-.88-.88-.44-1.32a21.78,21.78,0,0,1-4-6.16,7.15,7.15,0,0,1-2.2-3.53,11.49,11.49,0,0,1-3.52-5.72l.88-.44,1.32-.88.88-.44a43.82,43.82,0,0,1,5.29-3.09,7.06,7.06,0,0,1,3.52-1.32l.88-.88a43.8,43.8,0,0,1,7-2.64l.88-.88h1.33a15.22,15.22,0,0,1,3.52-1.76h1.32A15.09,15.09,0,0,1,518.3,70a31.35,31.35,0,0,1,11.45-2.64l1.32-.44Q561.23,64.91,581.27,81.88Zm-29.06,57.68h-1.32a21,21,0,0,1-4.41.88h-1.32a2.39,2.39,0,0,1-1.32.44l-1.76.44h-1.32l-1.76.44-2.64.44a2.32,2.32,0,0,1-1.32.44l-1.77.44-1.32.44a63.06,63.06,0,0,0-9.68,3.09q-4.63,6.16-2.65,12.77,11,15.41,31.71,5.28l3.52-5.28.44-1.77V139.12H554Z"/><path class="cls-1" d="M680.24,70h10.13v31.7q-25.43-3.3-36.55,16.29v1.32a25,25,0,0,0-1.76,10.13V192H619V72.19h33V83.64Q663.73,71.87,678.48,70Z"/><path class="cls-1" d="M717.9,24.19h25.54v89.39l1.76-1.76,1.76-1.76,1.32-1.76.88-.88L750,107a26.47,26.47,0,0,1,3.08-3.53L754,103a19,19,0,0,1,4.85-4.84l1.32-1.32A19,19,0,0,1,765,92a10.34,10.34,0,0,1,3.08-3.08,10.37,10.37,0,0,1,3.09-3.08l.44-.88.88-.44A26.31,26.31,0,0,1,775.58,81l1.32-.88a1.69,1.69,0,0,1,.88-.89l.44-.88.88-.88L780,77l.44-.88.88-.44a26.3,26.3,0,0,1,3.09-3.52h44l-1.76,2.64-2.2,1.76-1.76,2.2L817,84.52l-.88.44a17.89,17.89,0,0,1-4.4,4.4,18,18,0,0,1-4.41,4.41l-.44.88-.88.88-.88.88-.88.44c-.29.51-.59.81-.88.88L798.48,103l-4.41,4-1.32,1.76-1.32.88-.88,1.32-1.32.88a10.23,10.23,0,0,1-3.08,3.08,30.24,30.24,0,0,1-6.17,6.61l.44,1.32.88.44,1.77,3.08.44.88a17.14,17.14,0,0,1,2.2,3.52,52.43,52.43,0,0,1,4.84,7.49l1.76,2.64,1.32,2.64,1.76,1.76.45.89,3.52,6.16a5.86,5.86,0,0,1,1.32,2.2,28.35,28.35,0,0,1,3.52,4.85l1.32,2.2.88,1.32.44.88a22.1,22.1,0,0,1,2.21,3.52,10.8,10.8,0,0,1,2.2,4l1.32,1.33.88,1.32.88,1.76.88.88.44,1.32,1.76,3.08.88.44.44,1.32,1.76,3.09a18.31,18.31,0,0,1,4,6.16H785.27l-4.41-6.61-.88-2.2a22.49,22.49,0,0,1-4.4-6.6l-1.76-2.2-.88-2.21-1.76-2.2-.88-1.76a18.16,18.16,0,0,1-3.09-5.28l-1.32-1.76-2.64-3.53-.88-1.32-.44-1.32-.88-1.32-.88-.88a34.45,34.45,0,0,0-4.41-7.05l-2.2,2.21a21.16,21.16,0,0,1-2.64,3.08l-1.32,1.32-.88.88-.88.44a23.76,23.76,0,0,1-4.4,4.84V192h-33V24.19Z"/><path class="cls-1" d="M138.93,253.39a.82.82,0,0,1-.25.24l-.41.08-.33.09h-.33a1.07,1.07,0,0,1-.41.08,2.06,2.06,0,0,1-.73.16h-.09a.33.33,0,0,1-.24.08l-.33.09-.57.08-.17.08-1.31.25q-2.22-5.85-7.57-5.85a12.64,12.64,0,0,0-2.77.35.41.41,0,0,1-.24.08l-.58.25a3.91,3.91,0,0,1-.82.33.3.3,0,0,1-.16.16l-.25.08-.24.17-.17.16-.24.08c-.26.26-.5.49-.71.68a4.56,4.56,0,0,1-.61.47l-.08.25-.41.41-.08.24-.16.09a5.43,5.43,0,0,1-.66,1.23,23.57,23.57,0,0,0-1.05,6.78,19.93,19.93,0,0,0,.64,5q1.62,6.09,7.63,6.64h.08q6.58,0,8.45-5.82l.41.08a2.12,2.12,0,0,0,.47.11l.43.05.17.09,1.31.24.33.08.57.09,1.48.32q-2.91,8.76-11.49,9.6a5.53,5.53,0,0,1-.71,0H126q-8.13,0-12.12-6.68a22.88,22.88,0,0,1-2.46-10,20.73,20.73,0,0,1,1.14-6.73q3.12-8.79,11.74-9.76l.48,0h.46Q135.79,243.93,138.93,253.39Z"/><path class="cls-1" d="M163.27,258.23a17.19,17.19,0,0,1,1.41,6.66,15.11,15.11,0,0,1-.51,3.92q-1.41,6.1-7.13,7.63a11.34,11.34,0,0,1-1.65.31c-.53.07-1,.1-1.57.12a9.94,9.94,0,0,1-5.56-1.66,10.93,10.93,0,0,1-5-8.78c0-.19,0-.38,0-.57v-.54q0-10.26,9.38-12.34l.36,0h.37Q160,253,163.27,258.23ZM148.34,266q.67,5.49,5.58,6,5-.48,5.58-5.25c.05-.41.1-.81.14-1.19a8.42,8.42,0,0,0,0-1.11q0-6.21-6.17-6.64-5.23,1.29-5.23,6.95C148.28,265.16,148.3,265.58,148.34,266Z"/><path class="cls-1" d="M186.48,256.17a8.76,8.76,0,0,1,6.12-2.76,7.35,7.35,0,0,1,1.55.16,11.5,11.5,0,0,1,1.6.47,8.11,8.11,0,0,1,3.7,3l.08.17.16.49.08.17.5,1.55c0,.32,0,.61.06.89s0,.52,0,.75v15.1h-4.92V262.16l-.17-1.39a2.35,2.35,0,0,1-.33-.9,3.42,3.42,0,0,0-2.87-1.95,4.37,4.37,0,0,0-2.21.72,5.16,5.16,0,0,0-1.72,2.05l-.17,1v14.44h-5V261.59l-.08-.74-.17-.33v-.24c-.14-.22-.25-.42-.35-.61a3.07,3.07,0,0,1-.22-.54,3.88,3.88,0,0,0-2.55-1.15,4.84,4.84,0,0,0-3.85,2.54l-.17.58-.08.9a1.35,1.35,0,0,1,.08.3,1.23,1.23,0,0,1,0,.27.86.86,0,0,1,0,.25v13.29h-5.08v-22.4h5.08v1.64a9.59,9.59,0,0,1,4.76-2h.08A7.12,7.12,0,0,1,186.48,256.17Z"/><path class="cls-1" d="M223,256.17a8.73,8.73,0,0,1,6.11-2.76,7.51,7.51,0,0,1,1.56.16,11.91,11.91,0,0,1,1.6.47,8,8,0,0,1,3.69,3l.08.17.17.49.08.17.49,1.55c0,.32,0,.61.06.89s0,.52,0,.75v15.1h-4.92V262.16l-.16-1.39a2.35,2.35,0,0,1-.33-.9,3.44,3.44,0,0,0-2.87-1.95,4.43,4.43,0,0,0-2.22.72,5.25,5.25,0,0,0-1.72,2.05l-.16,1v14.44h-5V261.59l-.08-.74-.16-.33v-.24a5.79,5.79,0,0,1-.35-.61,3.13,3.13,0,0,1-.23-.54A3.84,3.84,0,0,0,216.1,258a4.86,4.86,0,0,0-3.86,2.54l-.16.58-.08.9a2.26,2.26,0,0,1,.08.3,2.45,2.45,0,0,1,0,.27,1.47,1.47,0,0,1,0,.25v13.29H207v-22.4h5.09v1.64a9.55,9.55,0,0,1,4.76-2h.08A7.15,7.15,0,0,1,223,256.17Z"/><path class="cls-1" d="M262.61,263l.08,1.23a.36.36,0,0,1,.08.25v2.46h-15q.48,4.18,4.27,4.92c.41,0,.81.06,1.21.06a7.42,7.42,0,0,0,5.27-2,2.46,2.46,0,0,0,.65.74l.09.25.24.24a5.65,5.65,0,0,1,.49.51,1.87,1.87,0,0,1,.33.48.33.33,0,0,1,.17.16l1.15,1.32a12.77,12.77,0,0,1-8.31,3.26,11.51,11.51,0,0,1-1.54-.11c-.52-.07-1-.16-1.56-.28q-7.09-2.37-7.79-10.18c0-.06,0-.2,0-.41s0-.33,0-.39q0-10.68,9.62-12.16Q261.58,253.63,262.61,263Zm-14.93.09h9.93v-.25a1.46,1.46,0,0,1-.09-.49v-.17a2.66,2.66,0,0,1-.24-.82,5.18,5.18,0,0,0-5-3.52Q247.89,258.86,247.68,263.07Z"/><path class="cls-1" d="M280.16,253.3v5.25l-.34,0h-.35a6.13,6.13,0,0,0-5.87,3.39l-.24,1.31-.09.57v12.31h-5V253.8h5v1.25a4.35,4.35,0,0,0,.09,1,7.39,7.39,0,0,1,5.74-2.71Z"/><path class="cls-1" d="M303.87,259.37l-.9.33a3,3,0,0,1-.66.41l-.16.08-.49.17a1.47,1.47,0,0,1-.66.33l-1.31.73q-1.79-3.48-5.09-3.48a6.9,6.9,0,0,0-1.23.12l-.24.17-.25.08-.9.49c-.22.26-.43.49-.62.7s-.37.38-.53.53a11.59,11.59,0,0,0-1.29,5.09,9.56,9.56,0,0,0,1.45,5,4.61,4.61,0,0,0,3.76,2H295l.22,0a5.63,5.63,0,0,0,4.59-3.45l.82.5.33.16a2.25,2.25,0,0,1,.65.25l.33.16.17.16,1.8.82q-3.28,5.81-9,5.81c-.3,0-.61,0-.93,0s-.62-.06-.94-.11q-7.33-1.53-8.37-9.27a17.88,17.88,0,0,1-.12-2.05,13,13,0,0,1,1.68-6.56,9.09,9.09,0,0,1,7.88-4.92Q301.07,253.71,303.87,259.37Z"/><path class="cls-1" d="M314,247.32v.26a3.74,3.74,0,0,1-1.06,2.77,4.78,4.78,0,0,1-2.07.55,2.9,2.9,0,0,1-2.61-1.78,5.3,5.3,0,0,1-.18-1.27,2.84,2.84,0,0,1,2.31-2.83h.21A3.24,3.24,0,0,1,314,247.32Zm-5.49,6.56h5v22.39h-5Z"/><path class="cls-1" d="M335.7,255.76l.25.5a5.83,5.83,0,0,1,1.23,2.46q.07.52.12,1c0,.31,0,.58,0,.81v10.83a3.14,3.14,0,0,0,2.21,1.8l-.16.25a.33.33,0,0,1-.16.17l-.09.24L339,274a2.52,2.52,0,0,1-.49.73,2.76,2.76,0,0,1-.74,1.15,7.87,7.87,0,0,1-.35.71c-.11.2-.21.37-.31.52a7.19,7.19,0,0,1-3.77-2.21h-.25a9.21,9.21,0,0,1-5.45,1.9,9.08,9.08,0,0,1-3-.51,7.66,7.66,0,0,1-5.34-5.74v-.1q0-7.94,9.29-7.94h.06a1.11,1.11,0,0,1,.41-.08l.25-.08h.58l.24-.09h.25l2.05-.24a2.1,2.1,0,0,0,0-.41v-.41c0-2.28-1.21-3.43-3.63-3.43a20.54,20.54,0,0,0-6.91,1.71l-.33-.74-.16-.49-.17-.17-.08-.16-.16-.5a3,3,0,0,1-.33-.73,3.37,3.37,0,0,1-.58-1.15l.25-.08.16-.09.25-.08.16-.16h.25a.19.19,0,0,1,.14-.08h0a8.22,8.22,0,0,1,1.32-.58l.41-.08a2.71,2.71,0,0,1,.82-.25l.65-.16a4.66,4.66,0,0,1,1.4-.33l1.8-.33.79-.07.75,0A8.62,8.62,0,0,1,335.7,255.76Zm-5.25,10.42H330l-.36.06a2,2,0,0,1-.34,0h-.12l-.33.09h-.25a.41.41,0,0,1-.24.08h-.25l-1.31.33h-.25a3.55,3.55,0,0,1-1,.41,3.53,3.53,0,0,0-1.34,2.46,3,3,0,0,0,1.09,2.13,5.91,5.91,0,0,0,3.08,1,5.48,5.48,0,0,0,3.65-1.53,2,2,0,0,1,.33-.66l.08-.25-.08-.32V266.1H330.7A.41.41,0,0,1,330.45,266.18Z"/><path class="cls-1" d="M345.13,244.77h5v22.72a4.61,4.61,0,0,0,0,.52v.47a13.5,13.5,0,0,0,.18,2.38A3.23,3.23,0,0,0,353,272a8.52,8.52,0,0,0,1.8-.23v.49l.08.25.17,1.15v.49l.08.16v.5l.25,1.39a17.34,17.34,0,0,1-4.06.55c-3.18,0-5.21-1.3-6.11-3.91,0-.14,0-.26,0-.37a.84.84,0,0,0-.05-.29Z"/><path class="cls-1" d="M374.42,244.77H386.8l.34.06a1.56,1.56,0,0,0,.3,0h.1l.91.17c.26.09.49.18.7.24a5.68,5.68,0,0,0,.61.17q6.25,3.24,6.25,9.39c0,.26,0,.52,0,.79s0,.54-.07.81q-2.09,8.44-10.19,8.45l-.87,0-.92-.06h-4v11.4h-5.49ZM379.83,260h5.27a5.9,5.9,0,0,1,1,.08.23.23,0,0,1,.14-.08h0l.58-.08.49-.09c2.3-1.19,3.44-2.79,3.44-4.82a6.92,6.92,0,0,0-.41-2.23,7.09,7.09,0,0,0-2.37-2.54,5.64,5.64,0,0,1-1.24-.41h-.41l-.49-.09h-6.07Z"/><path class="cls-1" d="M416,255.76l.24.5a5.6,5.6,0,0,1,1.23,2.46c.06.35.1.68.13,1s0,.58,0,.81v10.83a3.12,3.12,0,0,0,2.21,1.8l-.16.25a.38.38,0,0,1-.16.17l-.09.24-.16.17a2.52,2.52,0,0,1-.49.73,2.76,2.76,0,0,1-.74,1.15,7.87,7.87,0,0,1-.35.71c-.11.2-.21.37-.31.52a7.19,7.19,0,0,1-3.77-2.21h-.25a8.87,8.87,0,0,1-8.45,1.39,7.64,7.64,0,0,1-5.33-5.74v-.1q0-7.94,9.29-7.94H409a1.11,1.11,0,0,1,.41-.08l.25-.08h.57l.25-.09h.25l2.05-.24a3.32,3.32,0,0,0,0-.41v-.41c0-2.28-1.21-3.43-3.63-3.43a20.54,20.54,0,0,0-6.91,1.71l-.33-.74-.17-.49-.16-.17-.08-.16-.17-.5a2.58,2.58,0,0,1-.32-.73,3.37,3.37,0,0,1-.58-1.15l.25-.08.16-.09.25-.08.16-.16h.25a.19.19,0,0,1,.14-.08h0a7.85,7.85,0,0,1,1.32-.58l.41-.08a2.71,2.71,0,0,1,.82-.25l.65-.16a4.66,4.66,0,0,1,1.4-.33l1.8-.33.79-.07.75,0A8.62,8.62,0,0,1,416,255.76Zm-5.25,10.42h-.49l-.36.06a2,2,0,0,1-.34,0h-.12l-.33.09h-.25a.41.41,0,0,1-.24.08h-.25l-1.31.33h-.25a3.55,3.55,0,0,1-1,.41,3.53,3.53,0,0,0-1.34,2.46,3,3,0,0,0,1.09,2.13,5.91,5.91,0,0,0,3.08,1,5.5,5.5,0,0,0,3.65-1.53,2.23,2.23,0,0,1,.32-.66l.09-.25-.09-.32V266.1H411A.38.38,0,0,1,410.76,266.18Z"/><path class="cls-1" d="M437.66,253.3v5.25l-.34,0H437a6.13,6.13,0,0,0-5.87,3.39l-.24,1.31-.09.57v12.31h-5V253.8h5v1.25a4.35,4.35,0,0,0,.09,1,7.39,7.39,0,0,1,5.74-2.71Z"/><path class="cls-1" d="M443,244.85h5v17.56l.41-.33.33-.41.49-.49.16-.08c.06-.1.11-.15.17-.17l.9-1,.25-.33.82-.74a2.85,2.85,0,0,1,.41-.48,3.21,3.21,0,0,1,.41-.34l.49-.49a2.1,2.1,0,0,1,.57-.58l.5-.49.16-.24.25-.17.16-.24.16-.17.25-.16.08-.17a6.82,6.82,0,0,1,.74-.82l.17-.08.29-.37a1.85,1.85,0,0,1,.28-.28H463l-.08.16-.16.16-.17.09-.08.16-.16.08-.3.37a1.94,1.94,0,0,1-.28.29l-.41.33-.24.41-.17.08a.3.3,0,0,1-.16.16,6.46,6.46,0,0,1-1.23,1.23c-.06.1-.11.15-.17.17a4.84,4.84,0,0,1-.57.66,4.31,4.31,0,0,1-.58.49L458,259l-.58.5-.24.32-.41.41-.33.25-.16.25-.25.16L456,261l-.25.17-.41.41-.08.16-.17.08a2.59,2.59,0,0,1-.41.49,2.47,2.47,0,0,1-.41.33l.25.58.33.49.24.25.09.16a3.88,3.88,0,0,1,.41.66l.24.24.09.25a.17.17,0,0,1,.08.12v0a18782188259118.65,18782188259118.65,0,0,0,1.64,2.46l.33.33.16.41.33.33a10,10,0,0,0,.65,1l.25.32.25.41.24.33.17.33.24.33,1.32,2,.08.24.16.09.17.24c.26.38.48.74.67,1.07a10,10,0,0,1,.47.9h-5.41l-.25-.49-.06-.07a.19.19,0,0,1,0-.08v0a7.69,7.69,0,0,1-.9-1.23l-.25-.32-.24-.41a5.14,5.14,0,0,1-.34-.54l-.24-.45-.24-.25-.25-.32-.16-.33-.25-.33-.25-.41a5.27,5.27,0,0,1-.73-1.15l-.25-.33a1.68,1.68,0,0,1-.41-.65l-.25-.25-.32-.57-.66-1a.19.19,0,0,1-.06-.07.08.08,0,0,1,0-.07v0c-.14-.15-.26-.3-.37-.43s-.21-.27-.29-.39a.3.3,0,0,1-.16.16l-.17.33-.74.66c-.05.09-.1.15-.16.16l-.08.16-.49.41a3.51,3.51,0,0,1-1.07,1.15v7.14h-5Z"/><path class="cls-1" d="M472.69,247.32v.26a3.74,3.74,0,0,1-1.06,2.77,4.79,4.79,0,0,1-2.08.55,2.9,2.9,0,0,1-2.6-1.78,5.36,5.36,0,0,1-.19-1.27,2.85,2.85,0,0,1,2.32-2.83h.21A3.25,3.25,0,0,1,472.69,247.32Zm-5.49,6.56h5v22.39h-5Z"/><path class="cls-1" d="M497.47,257.73V258a3,3,0,0,1,.32,1v17.15h-5V261.59l-.08-.49c-.69-2.07-1.83-3.1-3.45-3.1a5,5,0,0,0-1.64.31,5.53,5.53,0,0,0-2.95,2.79l-.33,1.39v13.62h-4.92v-22.4h4.92v1.89a9.55,9.55,0,0,1,5-2.46h.37Q495.22,253.14,497.47,257.73Z"/><path class="cls-1" d="M517.32,255.44v-1.56h4.92v22.8l-.08.9-.09.17-.08.49-.33,1-.24.49-.33.49a5.3,5.3,0,0,1-1.39,1.64l-.33.41-1.73.82a21.84,21.84,0,0,1-5.27.68,16.83,16.83,0,0,1-8.51-2.24l.17-.33.41-.9.33-.82.08-.24.16-.33a6.5,6.5,0,0,1,.49-1l.17-.57A13.61,13.61,0,0,0,511.8,279a9,9,0,0,0,4.78-1.35l.08-.25a3.89,3.89,0,0,0,.66-1.39v-3.45a8.64,8.64,0,0,1-8.12,1.56,9,9,0,0,1-5.75-6.07,16.61,16.61,0,0,1-.52-2.17,12.65,12.65,0,0,1-.17-2.1,11.08,11.08,0,0,1,1.43-5.49,8.82,8.82,0,0,1,6.73-4.92h.31A9.34,9.34,0,0,1,517.32,255.44Zm-5.21,2.87h-.37l-1.81.65a7.36,7.36,0,0,0-2,5,5.79,5.79,0,0,0,.07.92c.35,3.1,2,4.72,4.92,4.84q4.36-.56,4.37-5.35v-.31a1.84,1.84,0,0,0,0-.33q-.12-5.43-5-5.49C512.18,258.28,512.14,258.31,512.11,258.31Z"/><path class="cls-1" d="M565.63,249.45l-.41.24a3.59,3.59,0,0,1-.39.39,2.55,2.55,0,0,1-.35.27l-.41.41-.24.08a2,2,0,0,1-.82.66,2.63,2.63,0,0,1-1,.82,1.89,1.89,0,0,1-.49.49,8.68,8.68,0,0,0-7.14-3.83,8.85,8.85,0,0,0-1,.06q-3.78.12-4.84,3.28a5.17,5.17,0,0,0,1.31,3.61l.58.33.24.08.91.41H552l.32.08.41.08a4.07,4.07,0,0,0,.82.25l.66.16h.25l2.7.66h.25l.25.08h.24l.25.08,1.15.25.24.08.33.08.66.25a7,7,0,0,1,1.72.66l.16.16.25.08.16.25a2.7,2.7,0,0,1,.5.33.3.3,0,0,1,.16.16l1,.9a9.18,9.18,0,0,1,1.73,5.19,9.09,9.09,0,0,1-.49,2.85,9.6,9.6,0,0,1-5.25,6.4,4.77,4.77,0,0,1-1,.49,21.14,21.14,0,0,1-2.38.36,21.58,21.58,0,0,1-2.25.11,16,16,0,0,1-12.76-6l.08-.17.17-.08a.23.23,0,0,1,.14-.08h0a3.37,3.37,0,0,1,1-.82l.25-.25,1-.82.16-.08a.19.19,0,0,1,.14-.08h0c.22-.24.43-.44.64-.63a3.6,3.6,0,0,1,.59-.44h.25q3.48,4.56,7.9,4.55a11.06,11.06,0,0,0,4.81-1.19,5.46,5.46,0,0,1,.91-.82l.08-.24a4.61,4.61,0,0,0,.66-1.31c0-.1,0-.19,0-.27v-.25a4.27,4.27,0,0,0-1.83-3.67l-.25-.08a4,4,0,0,0-.82-.25l-.16-.16h-.25l-.32-.08-.17-.08h-.24l-.17-.09a6.43,6.43,0,0,1-1.31-.32h-.25l-.65-.17h-.25l-.33-.08-.16-.08a6.37,6.37,0,0,1-1.31-.33q-8.2-.95-9.11-8.45.18-8.93,9.76-9.76l.93-.06c.3,0,.59,0,.88,0Q562,244.12,565.63,249.45Z"/><path class="cls-1" d="M591.64,258.23a17.19,17.19,0,0,1,1.41,6.66,15.11,15.11,0,0,1-.51,3.92q-1.41,6.1-7.14,7.63a11,11,0,0,1-1.64.31c-.53.07-1.06.1-1.58.12a9.93,9.93,0,0,1-5.55-1.66,10.93,10.93,0,0,1-5-8.78c0-.19,0-.38,0-.57v-.54q0-10.26,9.37-12.34l.37,0h.37Q588.36,253,591.64,258.23ZM576.71,266q.67,5.49,5.58,6c3.35-.32,5.2-2.07,5.57-5.25.06-.41.11-.81.15-1.19a8.42,8.42,0,0,0,0-1.11q0-6.21-6.17-6.64-5.24,1.29-5.23,6.95C576.65,265.16,576.67,265.58,576.71,266Z"/><path class="cls-1" d="M599.1,244.77h5v22.72a4.61,4.61,0,0,0,0,.52v.47a13.5,13.5,0,0,0,.18,2.38A3.23,3.23,0,0,0,607,272a8.52,8.52,0,0,0,1.8-.23v.49l.08.25.17,1.15v.49l.08.16v.5l.25,1.39a17.4,17.4,0,0,1-4.06.55c-3.18,0-5.21-1.3-6.12-3.91,0-.14,0-.26,0-.37a.84.84,0,0,0,0-.29Z"/><path class="cls-1" d="M613,253.8h4.92V268a.41.41,0,0,1,.08.24.19.19,0,0,1,.08.13v0a8.73,8.73,0,0,0,.41,1.64,4.3,4.3,0,0,0,3.63,2h.06a5.7,5.7,0,0,0,3.86-3v-.24l.33-1V253.8h5v22.39h-5v-1.8a9.33,9.33,0,0,1-5.89,2.42,8.72,8.72,0,0,1-4.61-1.44,7.49,7.49,0,0,1-2.63-3.45l-.08-.57a4.08,4.08,0,0,1-.19-1.17V270a.76.76,0,0,1,0-.21Z"/><path class="cls-1" d="M645.7,245.26v8.54h5.9v4.26h-5.9v11.49c0,.26,0,.49,0,.7a5.48,5.48,0,0,0,.06.61,4.07,4.07,0,0,0,2.81,1.06,7,7,0,0,0,2.44-.49l.08.25v.49a2.25,2.25,0,0,1,.06.36c0,.12,0,.23,0,.34v.2a1.89,1.89,0,0,1,.11.44c0,.15,0,.27.06.38l.24,2.05c-.85.21-1.64.37-2.39.48a14.28,14.28,0,0,1-2.1.16q-4,0-5.76-2.6l-.08-.17-.17-.49a6,6,0,0,1-.33-1v-.24c0-.29,0-.55-.06-.79s0-.46,0-.67V258.06h-3.94V253.8h3.94v-7.14l.33-.17.66-.16.24-.16.41-.09a.41.41,0,0,1,.25-.08.41.41,0,0,1,.24-.08.41.41,0,0,1,.25-.08l.25-.17.65-.16a.28.28,0,0,1,.15-.08h0a.19.19,0,0,1,.14-.08h0l1.23-.5A.69.69,0,0,1,645.7,245.26Z"/><path class="cls-1" d="M661.86,247.32v.26a3.75,3.75,0,0,1-1.07,2.77,4.72,4.72,0,0,1-2.07.55,2.91,2.91,0,0,1-2.61-1.78,5.3,5.3,0,0,1-.18-1.27,2.84,2.84,0,0,1,2.32-2.83h.2A3.26,3.26,0,0,1,661.86,247.32Zm-5.5,6.56h5v22.39h-5Z"/><path class="cls-1" d="M687.2,258.23a17,17,0,0,1,1.42,6.66,15.11,15.11,0,0,1-.51,3.92q-1.43,6.1-7.14,7.63a11.22,11.22,0,0,1-1.64.31c-.53.07-1.06.1-1.58.12a10,10,0,0,1-5.56-1.66,10.92,10.92,0,0,1-5-8.78,5.43,5.43,0,0,1,0-.57v-.54q0-10.26,9.37-12.34a2.31,2.31,0,0,1,.37,0h.37Q683.93,253,687.2,258.23ZM672.27,266q.68,5.49,5.58,6,5-.48,5.58-5.25c.05-.41.1-.81.14-1.19a7,7,0,0,0,0-1.11q0-6.21-6.17-6.64-5.22,1.29-5.23,6.95C672.21,265.16,672.23,265.58,672.27,266Z"/><path class="cls-1" d="M713,257.73V258a2.77,2.77,0,0,1,.33,1v17.15h-5V261.59l-.09-.49q-1-3.11-3.44-3.1a5,5,0,0,0-1.64.31,5.58,5.58,0,0,0-3,2.79l-.32,1.39v13.62h-4.93v-22.4h4.93v1.89a9.55,9.55,0,0,1,5-2.46h.37Q710.7,253.14,713,257.73Z"/><path class="cls-1" d="M735.52,256.5l-.25.33-.24.25-.25.16-.33.49-.16.17-.16.08a3.36,3.36,0,0,1-.5.57l-1.06,1.23q-3.41-2.19-5.64-2.19a3.57,3.57,0,0,0-3.39,2.28,2.25,2.25,0,0,0,1.07,2,3.42,3.42,0,0,1,.66.25,5.78,5.78,0,0,1,1.31.33q7.77.57,8.69,6.23a2.77,2.77,0,0,1,0,.49v.46a6.76,6.76,0,0,1-3.48,6.19,12.17,12.17,0,0,1-5,1.13q-4.8,0-9.57-4.08l.16-.33.41-.41a4.27,4.27,0,0,1,.74-.74c.05-.1.11-.15.16-.16l.17-.25c0-.1.11-.15.16-.16l.08-.17.17-.08,1.06-1.23a9.24,9.24,0,0,0,6.36,2.87,8.65,8.65,0,0,0,2.83-.49,3,3,0,0,1,.74-.74,3.94,3.94,0,0,0,.12-.92,2.49,2.49,0,0,0-.69-1.79l-1.89-.65q-8.44-.52-9.19-7.22.55-6.75,7.63-7.22h.29A12.55,12.55,0,0,1,735.52,256.5Z"/></svg>